<svg width="175" height="85" viewBox="0 0 175 85" fill="none" xmlns="http://www.w3.org/2000/svg">
<path fill-rule="evenodd" clip-rule="evenodd" d="M130.378 0.414062H125.269C123.507 0.414062 122.079 1.83619 122.079 3.59001L122.079 81.1913C122.079 82.9451 123.507 84.3672 125.269 84.3672H130.379C132.141 84.3672 133.57 82.9451 133.57 81.1913L133.569 3.59001C133.569 1.83619 132.141 0.414062 130.378 0.414062ZM64.2819 9.24429H69.391C71.1533 9.24429 72.582 10.6668 72.582 12.4206L72.5808 81.1924C72.5808 82.9462 71.1521 84.3683 69.3898 84.3683H64.2807C62.5184 84.3683 61.0901 82.9462 61.0901 81.1924L61.0913 12.4206C61.0913 10.6668 62.5196 9.24429 64.2819 9.24429ZM49.0589 23.3422H43.9498C42.1875 23.3422 40.7592 24.7643 40.7592 26.5182L40.7607 81.1912C40.7607 82.9454 42.1889 84.3672 43.9513 84.3672H49.0604C50.8227 84.3672 52.2514 82.9454 52.2514 81.1912L52.2499 26.5182C52.2499 24.7643 50.8213 23.3422 49.0589 23.3422ZM23.6432 48.4042H28.7101C30.484 48.4042 31.922 49.8356 31.922 51.6014L31.922 81.1698C31.922 82.9357 30.4841 84.367 28.7101 84.367H23.6433C21.8693 84.367 20.4313 82.9357 20.4313 81.1698L20.4313 51.6014C20.4313 49.8356 21.8692 48.4042 23.6432 48.4042ZM0.100464 81.1826L0.100539 63.8067C0.100539 62.0481 1.53286 60.6224 3.30001 60.6224H8.3918C10.159 60.6224 11.5913 62.0481 11.5913 63.8067L11.5912 81.1826C11.5912 82.9413 10.1589 84.367 8.39172 84.367H3.29993C1.53278 84.367 0.100464 82.9413 0.100464 81.1826ZM89.7163 24.7978H84.6073C82.8449 24.7978 81.4166 26.2199 81.4166 27.9737L81.4193 81.1912C81.4193 82.9454 82.8476 84.3671 84.6099 84.3671H89.719C91.4813 84.3671 92.91 82.9454 92.91 81.1912L92.9074 27.9737C92.9074 26.2199 91.4787 24.7978 89.7163 24.7978ZM104.948 12.0805H110.057C111.819 12.0805 113.248 13.503 113.248 15.2569L113.24 81.1924C113.24 82.9463 111.811 84.3684 110.049 84.3684H104.94C103.178 84.3684 101.749 82.9463 101.749 81.1924L101.757 15.2569C101.757 13.503 103.185 12.0805 104.948 12.0805ZM145.578 6.17166H150.687C152.449 6.17166 153.878 7.59379 153.878 9.34761L153.9 81.1912C153.9 82.9451 152.471 84.3672 150.709 84.3672H145.599C143.837 84.3672 142.409 82.9451 142.409 81.1912L142.387 9.34761C142.387 7.59379 143.815 6.17166 145.578 6.17166ZM171.341 51.3596H166.232C164.47 51.3596 163.042 52.7817 163.042 54.5355L163.024 81.6922C163.024 83.4461 164.452 84.8682 166.215 84.8682H171.324C173.086 84.8682 174.515 83.4461 174.515 81.6922L174.532 54.5355C174.532 52.7817 173.104 51.3596 171.341 51.3596Z" fill="#78C51C"/>
<path fill-rule="evenodd" clip-rule="evenodd" d="M52.2548 44.4088H40.7641L40.7607 81.1912C40.7607 82.9454 42.1894 84.3671 43.9513 84.3671H49.0608C50.8227 84.3671 52.2514 82.9454 52.2514 81.1912L52.2548 44.4088ZM20.4311 68.8001H31.9218L31.9221 81.1698C31.9221 82.9356 30.4841 84.367 28.7101 84.367H23.6433C21.8693 84.367 20.4313 82.9356 20.4313 81.1698L20.4311 68.8001ZM0.101637 73.0134H11.5924L11.5912 81.1834C11.5912 82.942 10.1589 84.3677 8.39172 84.3677H3.29993C1.53278 84.3677 0.100464 82.942 0.100464 81.1834L0.101637 73.0134ZM61.0936 45.4141H72.5843L72.5808 81.1911C72.5808 82.9454 71.1521 84.3671 69.3902 84.3671H64.2807C62.5188 84.3671 61.0901 82.9454 61.0901 81.1911L61.0936 45.4141ZM92.9036 46.7434H81.4129L81.4201 81.1911C81.4201 82.9453 82.8488 84.3671 84.6107 84.3671H89.7202C91.4821 84.3671 92.9108 82.9453 92.9108 81.1911L92.9036 46.7434ZM101.77 49.2963H113.261L113.24 81.1911C113.24 82.9454 111.811 84.3671 110.05 84.3671H104.94C103.178 84.3671 101.749 82.9454 101.749 81.1911L101.77 49.2963ZM133.568 64.1588H122.077L122.079 81.1911C122.079 82.9453 123.507 84.367 125.269 84.367H130.379C132.141 84.367 133.569 82.9453 133.569 81.1911L133.568 64.1588ZM142.299 75.4043H153.79L153.9 81.191C153.9 82.9452 152.472 84.3669 150.71 84.3669H145.6C143.838 84.3669 142.41 82.9452 142.41 81.191L142.299 75.4043ZM174.535 78.1645H163.045L163.024 81.6926C163.024 83.4464 164.453 84.8685 166.215 84.8685H171.324C173.086 84.8685 174.515 83.4464 174.515 81.6926L174.535 78.1645Z" fill="#C8F169"/>
</svg>
