<svg width="24" height="24" viewBox="0 0 24 24" fill="none" xmlns="http://www.w3.org/2000/svg">
<g clip-path="url(#clip0_1_851)">
<g clip-path="url(#clip1_1_851)">
<g clip-path="url(#clip2_1_851)">
<path fill-rule="evenodd" clip-rule="evenodd" d="M19.9085 13.3648C17.3376 15.9356 13.1692 15.9356 10.5983 13.3648C8.02733 10.7938 8.02733 6.62543 10.5983 4.05449C13.1692 1.48354 17.3376 1.48354 19.9085 4.05449C22.4795 6.62543 22.4795 10.7938 19.9085 13.3648ZM11.3031 16.4744C14.5738 18.1392 18.6764 17.6038 21.412 14.8682C24.8134 11.4669 24.8134 5.95229 21.412 2.55098C18.0107 -0.850328 12.4961 -0.850328 9.09478 2.55098C6.3747 5.27105 5.8299 9.34266 7.46038 12.6041L0.311386 19.7531C-0.103795 20.1683 -0.103795 20.8415 0.311386 21.2566L2.66442 23.6096C3.07961 24.0248 3.75275 24.0248 4.16792 23.6096L11.3031 16.4744Z" fill="#043F2E"/>
<path fill-rule="evenodd" clip-rule="evenodd" d="M11.9236 7.93729C11.7986 7.81232 11.596 7.81232 11.471 7.93729L10.7922 8.61611C10.6672 8.74108 10.6672 8.94368 10.7922 9.06865L13.7338 12.0102C13.8587 12.1352 14.0614 12.1352 14.1863 12.0102L15.0886 11.108V11.1023V11.0966L19.4164 6.76878C19.5413 6.64381 19.5413 6.44119 19.4164 6.31624L18.7375 5.63741C18.6125 5.51244 18.4099 5.51244 18.285 5.63741L14.1807 9.74177C14.0556 9.86674 13.8531 9.86674 13.728 9.74177L11.9236 7.93729Z" fill="#043F2E"/>
</g>
</g>
</g>
<defs>
<clipPath id="clip0_1_851">
<rect width="24" height="24" fill="white"/>
</clipPath>
<clipPath id="clip1_1_851">
<rect width="24" height="24" fill="white"/>
</clipPath>
<clipPath id="clip2_1_851">
<rect width="24" height="24" fill="white"/>
</clipPath>
</defs>
</svg>
