<svg width="25" height="24" viewBox="0 0 25 24" fill="none" xmlns="http://www.w3.org/2000/svg">
<g clip-path="url(#clip0_1_889)">
<g clip-path="url(#clip1_1_889)">
<g clip-path="url(#clip2_1_889)">
<path fill-rule="evenodd" clip-rule="evenodd" d="M6.1 0C3.00721 0 0.5 2.50721 0.5 5.6C0.5 8.6928 3.00721 11.2 6.1 11.2H18.9C21.9928 11.2 24.5 8.6928 24.5 5.6C24.5 2.50721 21.9928 0 18.9 0H6.1ZM6.10312 9.59844C8.31226 9.59844 10.1031 7.80757 10.1031 5.59843C10.1031 3.3893 8.31226 1.59844 6.10312 1.59844C3.89398 1.59844 2.10313 3.3893 2.10313 5.59843C2.10313 7.80757 3.89398 9.59844 6.10312 9.59844Z" fill="#043F2E"/>
<path fill-rule="evenodd" clip-rule="evenodd" d="M6.1 12.7969C3.00721 12.7969 0.5 15.3041 0.5 18.3968C0.5 21.4897 3.00721 23.9969 6.1 23.9969H18.9C21.9928 23.9969 24.5 21.4897 24.5 18.3968C24.5 15.3041 21.9928 12.7969 18.9 12.7969H6.1ZM21.3 18.3953C21.3 19.7208 20.2255 20.7953 18.9 20.7953C17.5746 20.7953 16.5 19.7208 16.5 18.3953C16.5 17.0699 17.5746 15.9953 18.9 15.9953C20.2255 15.9953 21.3 17.0699 21.3 18.3953ZM22.9 18.3953C22.9 20.6045 21.1092 22.3953 18.9 22.3953C16.6909 22.3953 14.9 20.6045 14.9 18.3953C14.9 16.1862 16.6909 14.3953 18.9 14.3953C21.1092 14.3953 22.9 16.1862 22.9 18.3953Z" fill="#043F2E"/>
</g>
</g>
</g>
<defs>
<clipPath id="clip0_1_889">
<rect width="24" height="24" fill="white" transform="translate(0.5)"/>
</clipPath>
<clipPath id="clip1_1_889">
<rect width="24" height="24" fill="white" transform="translate(0.5)"/>
</clipPath>
<clipPath id="clip2_1_889">
<rect width="24" height="24" fill="white" transform="translate(0.5)"/>
</clipPath>
</defs>
</svg>
