<svg width="24" height="24" viewBox="0 0 24 24" fill="none" xmlns="http://www.w3.org/2000/svg">
<g clip-path="url(#clip0_1_876)">
<g clip-path="url(#clip1_1_876)">
<path fill-rule="evenodd" clip-rule="evenodd" d="M1.14282 10.5743C1.14282 10.406 1.27927 10.2695 1.44758 10.2695H2.36187C2.53018 10.2695 2.66663 10.406 2.66663 10.5743V11.4871C2.66663 11.6554 2.80307 11.7919 2.97139 11.7919H8.48538C8.6537 11.7919 8.79015 11.6554 8.79015 11.4871V10.5743C8.79015 10.406 8.92659 10.2695 9.0949 10.2695H10.0092C10.1775 10.2695 10.314 10.406 10.314 10.5743V13.0123C10.314 13.1807 10.1775 13.3171 10.0092 13.3171H9.0949C9.08467 13.3171 9.07457 13.3167 9.06459 13.3157H2.39218C2.38222 13.3167 2.3721 13.3171 2.36187 13.3171H1.44758C1.27927 13.3171 1.14282 13.1807 1.14282 13.0123V13.0109V12.0966V10.5743Z" fill="#043F2E"/>
<path fill-rule="evenodd" clip-rule="evenodd" d="M4.47375 6.9723C4.66574 7.16429 4.99402 7.02832 4.99402 6.7568V1.43089C4.99402 1.26257 5.13046 1.12613 5.29878 1.12613H6.21307C6.38138 1.12613 6.51782 1.26257 6.51782 1.43089V6.71365C6.51782 6.98517 6.8461 7.12114 7.03809 6.92914L7.67607 6.29117C7.79508 6.17215 7.98805 6.17215 8.10707 6.29117L8.75356 6.93767C8.87258 7.05669 8.87258 7.24965 8.75356 7.36866L6.67899 9.44324C6.66053 9.46169 6.64518 9.48296 6.62921 9.50361C6.62133 9.5138 6.61273 9.52359 6.60338 9.53293L5.95689 10.1794C5.83787 10.2984 5.6449 10.2984 5.52588 10.1794L2.72439 7.37793C2.60538 7.25892 2.60538 7.06596 2.72439 6.94694L3.3709 6.30044C3.48991 6.18142 3.68287 6.18142 3.80189 6.30044L4.47375 6.9723Z" fill="#043F2E"/>
<path d="M11.4765 18.1543L8.27654 16.5886C8.18511 16.52 8.05939 16.5314 7.97939 16.6114L6.57368 19.2057C6.47082 19.3086 6.48225 19.4686 6.59654 19.5486L13.9794 23.9143C13.9794 23.9143 14.0708 23.96 14.1165 23.96H22.0365C22.1623 23.96 22.2651 23.8572 22.2651 23.7314V13.1829C22.2651 13.0572 22.1623 12.9543 22.0365 12.9543H15.0423C14.9165 12.9543 14.8137 12.8514 14.8137 12.7257V7.53713C14.8137 7.41142 14.7108 7.30856 14.5851 7.30856L12.0823 7.26285C11.9565 7.26285 11.8537 7.3657 11.8537 7.49142V17.9714C11.8537 18.1543 11.6365 18.2686 11.488 18.1543H11.4765Z" fill="#043F2E"/>
</g>
</g>
<defs>
<clipPath id="clip0_1_876">
<rect width="24" height="24" fill="white"/>
</clipPath>
<clipPath id="clip1_1_876">
<rect width="21.7143" height="24" fill="white" transform="translate(1.14282)"/>
</clipPath>
</defs>
</svg>
