<svg width="24" height="25" viewBox="0 0 24 25" fill="none" xmlns="http://www.w3.org/2000/svg">
<g clip-path="url(#clip0_1_861)">
<g clip-path="url(#clip1_1_861)">
<path fill-rule="evenodd" clip-rule="evenodd" d="M16.32 4.55369H17.2816C17.4584 4.55369 17.6016 4.69695 17.6016 4.87369V5.83369C17.6016 6.01041 17.7449 6.15368 17.9217 6.15368H18.8817C19.0584 6.15368 19.2016 6.01041 19.2016 5.83369V3.27368C19.2016 3.09696 19.0584 2.95369 18.8817 2.95369H18.8801H17.9217H16.32C16.1434 2.95369 16.0001 3.09696 16.0001 3.27368V4.23368C16.0001 4.41042 16.1434 4.55369 16.32 4.55369Z" fill="#043F2E"/>
<path d="M10.8832 10.9553C11.0599 10.9553 11.2032 11.0985 11.2032 11.2753V13.8353C11.2032 14.012 11.0599 14.1553 10.8832 14.1553H9.92315C9.74642 14.1553 9.60315 14.012 9.60315 13.8353V11.2753C9.60315 11.0985 9.74642 10.9553 9.92315 10.9553H10.8832Z" fill="#043F2E"/>
<path d="M17.5969 7.9143C17.5969 7.73757 17.7402 7.5943 17.9168 7.5943H18.8768C19.0536 7.5943 19.1969 7.73757 19.1969 7.9143V10.6365C19.1969 10.8132 19.0536 10.9565 18.8768 10.9565H17.9168C17.7402 10.9565 17.5969 10.8132 17.5969 10.6365V7.9143Z" fill="#043F2E"/>
<path fill-rule="evenodd" clip-rule="evenodd" d="M14.4608 1.64244C14.4608 1.4657 14.3176 1.32243 14.1408 1.32243H0.32C0.143269 1.32243 0 1.4657 0 1.64244V4.35993V4.559V9.03868C0 9.21542 0.143268 9.35869 0.319999 9.35869H10.88C11.0567 9.35869 11.2 9.21542 11.2 9.03868V4.87899C11.2 4.70227 11.3433 4.559 11.52 4.559H14.1408C14.3176 4.559 14.4608 4.41573 14.4608 4.239V1.64244Z" fill="#043F2E"/>
<path d="M12.5594 17.6358L9.19943 15.9918C9.10343 15.9198 8.97143 15.9318 8.88743 16.0158L7.41143 18.7398C7.30343 18.8478 7.31543 19.0158 7.43543 19.0998L15.1874 23.6838C15.1874 23.6838 15.2834 23.7318 15.3314 23.7318H23.6474C23.7794 23.7318 23.8874 23.6238 23.8874 23.4918V12.4158C23.8874 12.2838 23.7794 12.1758 23.6474 12.1758H16.3034C16.1714 12.1758 16.0634 12.0678 16.0634 11.9358V6.48777C16.0634 6.35577 15.9554 6.24777 15.8234 6.24777L13.1954 6.19977C13.0634 6.19977 12.9554 6.30777 12.9554 6.43977V17.4438C12.9554 17.6358 12.7274 17.7558 12.5714 17.6358H12.5594Z" fill="#043F2E"/>
</g>
</g>
<defs>
<clipPath id="clip0_1_861">
<rect width="24" height="24" fill="white" transform="translate(0 0.140015)"/>
</clipPath>
<clipPath id="clip1_1_861">
<rect width="24" height="24" fill="white" transform="translate(0 0.140015)"/>
</clipPath>
</defs>
</svg>
