<svg width="25" height="24" viewBox="0 0 25 24" fill="none" xmlns="http://www.w3.org/2000/svg">
<g clip-path="url(#clip0_1_898)">
<g clip-path="url(#clip1_1_898)">
<g clip-path="url(#clip2_1_898)">
<path fill-rule="evenodd" clip-rule="evenodd" d="M23.8303 11.1273C24.1421 11.6663 24.1421 12.3301 23.8303 12.8693C21.5094 16.8827 17.3513 19.5575 12.6078 19.5575C7.86431 19.5575 3.70617 16.8827 1.38519 12.8693C1.07343 12.3301 1.07343 11.6664 1.38519 11.1273C3.70617 7.11381 7.86431 4.43906 12.6078 4.43906C17.3513 4.43906 21.5094 7.11381 23.8303 11.1273ZM12.5997 7.90312C10.2805 7.90312 8.40041 9.78322 8.40041 12.1025C8.40041 14.4216 10.2805 16.3018 12.5997 16.3018C14.919 16.3018 16.799 14.4216 16.799 12.1025C16.799 9.78322 14.919 7.90312 12.5997 7.90312Z" fill="#043F2E"/>
<path fill-rule="evenodd" clip-rule="evenodd" d="M11.7615 9.84855C11.7615 9.77739 11.8062 9.71343 11.8743 9.69288C12.1049 9.62333 12.3495 9.58594 12.6028 9.58594C13.9944 9.58594 15.1225 10.714 15.1225 12.1055C15.1225 13.497 13.9944 14.6251 12.6028 14.6251C11.2113 14.6251 10.0833 13.497 10.0833 12.1055C10.0833 11.8534 10.1203 11.6099 10.1892 11.3803C10.2097 11.312 10.2737 11.2673 10.3449 11.2673H11.4255C11.6111 11.2673 11.7615 11.1169 11.7615 10.9313V9.84855Z" fill="#043F2E"/>
</g>
</g>
</g>
<defs>
<clipPath id="clip0_1_898">
<rect width="24" height="24" fill="white" transform="translate(0.609863)"/>
</clipPath>
<clipPath id="clip1_1_898">
<rect width="24" height="24" fill="white" transform="translate(0.609863)"/>
</clipPath>
<clipPath id="clip2_1_898">
<rect width="24" height="24" fill="white" transform="translate(0.609863)"/>
</clipPath>
</defs>
</svg>
