<svg width="111" height="36" viewBox="0 0 111 36" fill="none" xmlns="http://www.w3.org/2000/svg">
<g clip-path="url(#clip0_1_6)">
<path d="M36.0376 27.943C36.0376 27.6089 36.0376 27.4418 36.0041 27.3035C35.8965 26.8655 35.5474 26.5226 35.1004 26.4179C34.9593 26.3851 34.7888 26.3851 34.4479 26.3851H33.3436C33.0026 26.3851 32.8322 26.3851 32.6911 26.3523C32.2441 26.2468 31.8942 25.9047 31.7873 25.4667C31.7539 25.3284 31.7539 25.1613 31.7539 24.8272V16.7562C31.7539 16.4221 31.7539 16.2542 31.7882 16.1167C31.8958 15.6779 32.2449 15.3358 32.6927 15.2311C32.8338 15.1983 33.0043 15.1983 33.3452 15.1983H34.4487C34.7897 15.1983 34.9609 15.1983 35.1012 15.1655C35.549 15.0608 35.8981 14.7179 36.0058 14.2799C36.04 14.1416 36.04 13.9745 36.04 13.6404V2.05872C36.04 1.72459 36.04 1.55673 36.0066 1.41924C35.8989 0.981204 35.5498 0.638286 35.1029 0.533572C34.9618 0.500799 34.7913 0.500799 34.4504 0.500799H27.5078C27.2916 0.500799 27.1832 0.500799 27.0837 0.516786C26.7713 0.567944 26.4907 0.735007 26.3023 0.984401C26.2419 1.06354 26.193 1.15786 26.0935 1.3465L19.4429 14.0209L12.8722 1.3529C12.7735 1.16265 12.7246 1.06753 12.6642 0.987599C12.475 0.736605 12.1944 0.567944 11.8804 0.515987C11.7801 0.5 11.6716 0.5 11.4539 0.5H2.07093C1.73 0.5 1.55872 0.5 1.41844 0.532773C0.970658 0.638286 0.621572 0.980405 0.513909 1.41924C0.480469 1.55753 0.480469 1.72459 0.480469 2.05872V7.31439C0.480469 7.64852 0.480469 7.81638 0.513909 7.95387C0.621572 8.39191 0.970658 8.73482 1.41762 8.83954C1.55872 8.87231 1.72919 8.87231 2.07012 8.87231H3.13532C3.47625 8.87231 3.64753 8.87231 3.78782 8.90508C4.23478 9.0106 4.58468 9.35271 4.69153 9.79075C4.72497 9.92904 4.72497 10.0961 4.72497 10.4302V18.0695C4.72497 18.4037 4.72497 18.5707 4.69153 18.709C4.58387 19.1471 4.23478 19.49 3.78782 19.5947C3.64672 19.6275 3.47625 19.6275 3.13532 19.6275H2.07012C1.72919 19.6275 1.55791 19.6275 1.41762 19.6602C0.970658 19.7657 0.620756 20.1079 0.513909 20.5459C0.480469 20.6842 0.480469 20.8513 0.480469 21.1854V33.7311C0.480469 34.0652 0.480469 34.233 0.513909 34.3705C0.621572 34.8086 0.970658 35.1515 1.41762 35.2562C1.55872 35.289 1.72919 35.289 2.07012 35.289H11.6635C12.0044 35.289 12.1757 35.289 12.316 35.2562C12.7629 35.1507 13.1128 34.8086 13.2197 34.3705C13.2531 34.2322 13.2531 34.0652 13.2531 33.7311V27.9398C13.2531 27.6057 13.2531 27.4386 13.2197 27.3003C13.112 26.8623 12.7629 26.5194 12.316 26.4147C12.1749 26.3819 12.0044 26.3819 11.6635 26.3819H10.6097C10.2688 26.3819 10.0983 26.3819 9.95719 26.3491C9.51023 26.2436 9.16033 25.9015 9.05348 25.4635C9.02004 25.3252 9.02004 25.1581 9.02004 24.824V12.9801L15.9447 26.4131C16.1274 26.7672 16.2187 26.9446 16.315 27.0374C16.6274 27.3379 17.1265 27.3427 17.4446 27.0478C17.5433 26.9574 17.6379 26.7816 17.8271 26.4307L25.5111 12.216V24.8256C25.5111 25.1597 25.5111 25.3268 25.4777 25.4651C25.37 25.9031 25.0209 26.246 24.574 26.3507C24.4329 26.3835 24.2624 26.3835 23.9215 26.3835H21.8686C21.5276 26.3835 21.3563 26.3835 21.2161 26.4163C20.7691 26.5218 20.4192 26.8639 20.3123 27.3019C20.2789 27.4402 20.2789 27.6073 20.2789 27.9414V33.787C20.2789 34.1211 20.2789 34.2882 20.3123 34.4265C20.42 34.8645 20.7691 35.2074 21.2161 35.3122C21.3572 35.3449 21.5276 35.3449 21.8686 35.3449H34.4471C34.788 35.3449 34.9585 35.3449 35.0996 35.3122C35.5466 35.2066 35.8965 34.8645 36.0033 34.4265C36.0367 34.2882 36.0367 34.1211 36.0367 33.787V27.9414L36.0376 27.943Z" fill="#043F2E"/>
<path d="M60.0835 13.4276C59.4383 11.4812 57.8805 9.95447 55.8945 9.32219C54.9116 9.00885 53.6972 9.00885 51.2682 9.00885H47.6379C45.209 9.00885 43.9945 9.00885 43.0117 9.32219C41.0257 9.95447 39.4678 11.4812 38.8227 13.4276C38.5029 14.3908 38.5029 15.581 38.5029 17.9615V26.4201C38.5029 28.8006 38.5029 29.9908 38.8227 30.954C39.4678 32.9004 41.0257 34.4271 43.0117 35.0594C43.9945 35.372 45.209 35.372 47.6379 35.372H51.2682C53.6972 35.372 54.9116 35.372 55.8945 35.0594C57.8805 34.4271 59.4383 32.9004 60.0835 30.954C60.4024 29.9908 60.4024 28.8006 60.4024 26.4201V17.9615C60.4024 15.581 60.4024 14.3908 60.0835 13.4276ZM55.569 22.6049C55.569 23.6168 55.569 24.1228 55.4336 24.5321C55.1596 25.3594 54.4973 26.0085 53.6531 26.277C53.2355 26.4097 52.7192 26.4097 51.6867 26.4097H47.217C46.1845 26.4097 45.6682 26.4097 45.2506 26.277C44.4064 26.0085 43.7441 25.3594 43.4701 24.5321C43.3347 24.1228 43.3347 23.6168 43.3347 22.6049V21.8215C43.3347 20.8095 43.3347 20.3044 43.4701 19.8943C43.7441 19.067 44.4064 18.4179 45.2506 18.1493C45.6682 18.0166 46.1845 18.0166 47.217 18.0166H51.6867C52.7192 18.0166 53.2347 18.0166 53.6531 18.1493C54.4973 18.4179 55.1596 19.067 55.4336 19.8943C55.569 20.3036 55.569 20.8095 55.569 21.8215V22.6049Z" fill="#043F2E"/>
<path d="M63.5327 1.16265C63.6297 0.870895 63.863 0.641484 64.1607 0.547161C64.3083 0.5 64.4902 0.5 64.8548 0.5H68.6792C69.0438 0.5 69.2257 0.5 69.3733 0.547161C69.671 0.642283 69.9051 0.870895 70.0022 1.16265C70.0503 1.30734 70.0503 1.48559 70.0503 1.84289V7.3048C70.0503 7.75083 70.0503 7.97465 70.1098 8.1553C70.2306 8.5206 70.5225 8.80676 70.8953 8.92507C71.0796 8.98342 71.3072 8.98342 71.7631 8.98342H76.2507C78.6796 8.98342 79.8941 8.98342 80.8769 9.29596C82.8629 9.92824 84.4208 11.455 85.0659 13.4014C85.3856 14.3646 85.3856 15.5548 85.3856 17.9353V26.3939C85.3856 28.7743 85.3856 29.9646 85.0659 30.9278C84.4208 32.875 82.8629 34.4009 80.8769 35.0332C79.8941 35.3465 78.6796 35.3465 76.2507 35.3465H72.6203C70.1914 35.3465 68.9769 35.3465 67.9941 35.0332C66.0081 34.4009 64.4502 32.8742 63.8051 30.9278C63.4854 29.9646 63.4854 28.7743 63.4854 26.3939V1.84289C63.4854 1.48559 63.4846 1.30734 63.5327 1.16265ZM68.9329 22.5794C68.9329 23.5914 68.9329 24.0966 69.0683 24.5066C69.3423 25.334 70.0046 25.983 70.8488 26.2516C71.2664 26.3843 71.7827 26.3843 72.8153 26.3843H76.6699C77.7025 26.3843 78.218 26.3843 78.6364 26.2516C79.4805 25.983 80.1428 25.334 80.4169 24.5066C80.5523 24.0974 80.5523 23.5914 80.5523 22.5794V21.7961C80.5523 20.7841 80.5523 20.2789 80.4169 19.8689C80.1428 19.0415 79.4805 18.3925 78.6364 18.1239C78.2188 17.9912 77.7025 17.9912 76.6699 17.9912H72.8153C71.7827 17.9912 71.2664 17.9912 70.8488 18.1239C70.0046 18.3925 69.3423 19.0415 69.0683 19.8689C68.9329 20.2781 68.9329 20.7841 68.9329 21.7961V22.5794Z" fill="#043F2E"/>
<path d="M97.4671 29.2767C96.4345 29.2767 95.9183 29.2767 95.5007 29.144C94.6565 28.8754 93.9942 28.2263 93.7202 27.399C93.6337 27.1384 93.6027 26.8371 93.5913 26.3919H109.184C109.815 26.3919 110.326 25.8907 110.326 25.2728V17.9836C110.326 15.6031 110.326 14.4129 110.007 13.4497C109.362 11.5033 107.804 9.97657 105.818 9.34429C104.835 9.03094 103.621 9.03094 101.192 9.03094H97.5617C95.1328 9.03094 93.9183 9.03094 92.9355 9.34429C90.9487 9.97657 89.3916 11.5033 88.7465 13.4497C88.4268 14.4129 88.4268 15.6031 88.4268 17.9836V26.4422C88.4268 28.8227 88.4268 30.0129 88.7465 30.9761C89.3916 32.9225 90.9495 34.4492 92.9355 35.0815C93.9183 35.394 95.1328 35.394 97.5617 35.394H104.083C107.135 35.394 109.675 33.2486 110.219 30.4133C110.333 29.8226 109.871 29.2751 109.257 29.2751H97.4679L97.4671 29.2767ZM93.7202 19.8676C93.9942 19.0403 94.6565 18.3912 95.5007 18.1227C95.9183 17.99 96.4345 17.99 97.4671 17.99H101.284C102.317 17.99 102.832 17.99 103.251 18.1227C104.095 18.3912 104.757 19.0403 105.031 19.8676C105.167 20.2769 105.167 20.7829 105.167 21.7948V22.2361H93.5848V21.7948C93.5848 20.7829 93.5848 20.2769 93.7202 19.8676Z" fill="#043F2E"/>
</g>
<defs>
<clipPath id="clip0_1_6">
<rect width="111" height="35" fill="white" transform="translate(0 0.5)"/>
</clipPath>
</defs>
</svg>
